<svg width="40" height="40" viewBox="0 0 40 40" fill="none" xmlns="http://www.w3.org/2000/svg">
<path d="M12.5 14.9993H14.1667M14.1667 14.9993H27.5M14.1667 14.9993V26.666C14.1667 27.108 14.3423 27.532 14.6548 27.8445C14.9674 28.1571 15.3913 28.3327 15.8333 28.3327H24.1667C24.6087 28.3327 25.0326 28.1571 25.3452 27.8445C25.6577 27.532 25.8333 27.108 25.8333 26.666V14.9993H14.1667ZM16.6667 14.9993V13.3327C16.6667 12.8907 16.8423 12.4667 17.1548 12.1542C17.4674 11.8416 17.8913 11.666 18.3333 11.666H21.6667C22.1087 11.666 22.5326 11.8416 22.8452 12.1542C23.1577 12.4667 23.3333 12.8907 23.3333 13.3327V14.9993M18.3333 19.166V24.166M21.6667 19.166V24.166" stroke="#535862" stroke-width="1.66667" stroke-linecap="round" stroke-linejoin="round"/>
</svg>
